HIERARCHY
ROOT Hips
{
	OFFSET 0.000000 0.000000 0.000000
	CHANNELS 6 Xposition Yposition Zposition Zrotation Yrotation Xrotation 
	JOINT Spine
	{
		OFFSET 0.000000 10.181600 0.131500
		CHANNELS 3 Zrotation Yrotation Xrotation
		JOINT Spine1
		{
			OFFSET 0.000000 10.083500 -1.000800
			CHANNELS 3 Zrotation Yrotation Xrotation
			JOINT Spine2
			{
				OFFSET 0.000000 9.100000 -1.373400
				CHANNELS 3 Zrotation Yrotation Xrotation
				JOINT Neck
				{
					OFFSET 0.000000 16.671700 -2.516200
					CHANNELS 3 Zrotation Yrotation Xrotation
					JOINT Head
					{
						OFFSET -0.000000 9.617900 1.685000
						CHANNELS 3 Zrotation Yrotation Xrotation
						JOINT HeadTop_End
						{
							OFFSET -0.000000 17.815200 2.585000
							CHANNELS 3 Zrotation Yrotation Xrotation
							End Site
							{
								OFFSET 0.000000 0.000000 0.000000
							}
						}
						JOINT LeftEye
						{
							OFFSET 3.067600 6.409500 9.283600
							CHANNELS 3 Zrotation Yrotation Xrotation
							End Site
							{
								OFFSET 0.000000 0.000000 0.000000
							}
						}
						JOINT RightEye
						{
							OFFSET -3.067600 6.409500 9.283500
							CHANNELS 3 Zrotation Yrotation Xrotation
							End Site
							{
								OFFSET 0.000000 0.000000 0.000000
							}
						}
					}
				}
				JOINT LeftShoulder
				{
					OFFSET 4.570400 10.946000 -2.628000
					CHANNELS 3 Zrotation Yrotation Xrotation
					JOINT LeftArm
					{
						OFFSET 10.592400 -0.524600 -2.232100
						CHANNELS 3 Zrotation Yrotation Xrotation
						JOINT LeftForeArm
						{
							OFFSET 27.841500 -0.000100 0.000000
							CHANNELS 3 Zrotation Yrotation Xrotation
							JOINT LeftHand
							{
								OFFSET 28.328800 -0.000000 0.000000
								CHANNELS 3 Zrotation Yrotation Xrotation
								JOINT LeftHandThumb1
								{
									OFFSET 2.466100 -1.575000 2.682400
									CHANNELS 3 Zrotation Yrotation Xrotation
									JOINT LeftHandThumb2
									{
										OFFSET 3.229800 -1.864700 1.864700
										CHANNELS 3 Zrotation Yrotation Xrotation
										JOINT LeftHandThumb3
										{
											OFFSET 2.652600 -1.531500 1.531500
											CHANNELS 3 Zrotation Yrotation Xrotation
											JOINT LeftHandThumb4
											{
												OFFSET 1.954600 -1.128500 1.128500
												CHANNELS 3 Zrotation Yrotation Xrotation
												End Site
												{
													OFFSET 0.000000 0.000000 0.000000
												}
											}
										}
									}
								}
								JOINT LeftHandIndex1
								{
									OFFSET 9.109300 -0.517100 2.260100
									CHANNELS 3 Zrotation Yrotation Xrotation
									JOINT LeftHandIndex2
									{
										OFFSET 3.676400 -0.000000 0.000000
										CHANNELS 3 Zrotation Yrotation Xrotation
										JOINT LeftHandIndex3
										{
											OFFSET 2.883100 0.000000 -0.000000
											CHANNELS 3 Zrotation Yrotation Xrotation
											JOINT LeftHandIndex4
											{
												OFFSET 2.392700 0.000000 0.000000
												CHANNELS 3 Zrotation Yrotation Xrotation
												End Site
												{
													OFFSET 0.000000 0.000000 0.000000
												}
											}
										}
									}
								}
								JOINT LeftHandMiddle1
								{
									OFFSET 9.533400 -0.000000 0.000000
									CHANNELS 3 Zrotation Yrotation Xrotation
									JOINT LeftHandMiddle2
									{
										OFFSET 3.698200 0.000000 0.000000
										CHANNELS 3 Zrotation Yrotation Xrotation
										JOINT LeftHandMiddle3
										{
											OFFSET 2.950900 -0.000000 0.000000
											CHANNELS 3 Zrotation Yrotation Xrotation
											JOINT LeftHandMiddle4
											{
												OFFSET 2.833900 -0.000000 -0.000000
												CHANNELS 3 Zrotation Yrotation Xrotation
												End Site
												{
													OFFSET 0.000000 0.000000 0.000000
												}
											}
										}
									}
								}
								JOINT LeftHandRing1
								{
									OFFSET 9.104500 -0.043900 -1.865100
									CHANNELS 3 Zrotation Yrotation Xrotation
									JOINT LeftHandRing2
									{
										OFFSET 3.154000 -0.000000 0.000000
										CHANNELS 3 Zrotation Yrotation Xrotation
										JOINT LeftHandRing3
										{
											OFFSET 2.937700 -0.000000 -0.000000
											CHANNELS 3 Zrotation Yrotation Xrotation
											JOINT LeftHandRing4
											{
												OFFSET 2.647500 -0.000000 0.000000
												CHANNELS 3 Zrotation Yrotation Xrotation
												End Site
												{
													OFFSET 0.000000 0.000000 0.000000
												}
											}
										}
									}
								}
								JOINT LeftHandPinky1
								{
									OFFSET 8.077800 -0.488700 -3.806100
									CHANNELS 3 Zrotation Yrotation Xrotation
									JOINT LeftHandPinky2
									{
										OFFSET 3.600000 -0.000000 -0.000000
										CHANNELS 3 Zrotation Yrotation Xrotation
										JOINT LeftHandPinky3
										{
											OFFSET 2.114200 0.000000 -0.000000
											CHANNELS 3 Zrotation Yrotation Xrotation
											JOINT LeftHandPinky4
											{
												OFFSET 1.975700 0.000000 -0.000000
												CHANNELS 3 Zrotation Yrotation Xrotation
												End Site
												{
													OFFSET 0.000000 0.000000 0.000000
												}
											}
										}
									}
								}
							}
						}
					}
				}
				JOINT RightShoulder
				{
					OFFSET -4.570000 10.946200 -2.628000
					CHANNELS 3 Zrotation Yrotation Xrotation
					JOINT RightArm
					{
						OFFSET -10.592800 -0.524800 -2.232100
						CHANNELS 3 Zrotation Yrotation Xrotation
						JOINT RightForeArm
						{
							OFFSET -27.841500 -0.000000 0.000000
							CHANNELS 3 Zrotation Yrotation Xrotation
							JOINT RightHand
							{
								OFFSET -28.328800 -0.000000 0.000100
								CHANNELS 3 Zrotation Yrotation Xrotation
								JOINT RightHandPinky1
								{
									OFFSET -8.076700 -0.488500 -3.806000
									CHANNELS 3 Zrotation Yrotation Xrotation
									JOINT RightHandPinky2
									{
										OFFSET -3.600000 0.000000 0.000100
										CHANNELS 3 Zrotation Yrotation Xrotation
										JOINT RightHandPinky3
										{
											OFFSET -2.114200 0.000000 0.000000
											CHANNELS 3 Zrotation Yrotation Xrotation
											JOINT RightHandPinky4
											{
												OFFSET -1.975700 -0.000000 -0.000000
												CHANNELS 3 Zrotation Yrotation Xrotation
												End Site
												{
													OFFSET 0.000000 0.000000 0.000000
												}
											}
										}
									}
								}
								JOINT RightHandRing1
								{
									OFFSET -9.103600 -0.043900 -1.865100
									CHANNELS 3 Zrotation Yrotation Xrotation
									JOINT RightHandRing2
									{
										OFFSET -3.154000 0.000000 0.000000
										CHANNELS 3 Zrotation Yrotation Xrotation
										JOINT RightHandRing3
										{
											OFFSET -2.937700 -0.000000 -0.000000
											CHANNELS 3 Zrotation Yrotation Xrotation
											JOINT RightHandRing4
											{
												OFFSET -2.647500 0.000000 -0.000000
												CHANNELS 3 Zrotation Yrotation Xrotation
												End Site
												{
													OFFSET 0.000000 0.000000 0.000000
												}
											}
										}
									}
								}
								JOINT RightHandMiddle1
								{
									OFFSET -9.532500 -0.000000 0.000000
									CHANNELS 3 Zrotation Yrotation Xrotation
									JOINT RightHandMiddle2
									{
										OFFSET -3.698200 0.000000 -0.000000
										CHANNELS 3 Zrotation Yrotation Xrotation
										JOINT RightHandMiddle3
										{
											OFFSET -2.950900 -0.000000 -0.000000
											CHANNELS 3 Zrotation Yrotation Xrotation
											JOINT RightHandMiddle4
											{
												OFFSET -2.833900 0.000000 0.000100
												CHANNELS 3 Zrotation Yrotation Xrotation
												End Site
												{
													OFFSET 0.000000 0.000000 0.000000
												}
											}
										}
									}
								}
								JOINT RightHandIndex1
								{
									OFFSET -9.108300 -0.516800 2.260100
									CHANNELS 3 Zrotation Yrotation Xrotation
									JOINT RightHandIndex2
									{
										OFFSET -3.676400 0.000000 0.000000
										CHANNELS 3 Zrotation Yrotation Xrotation
										JOINT RightHandIndex3
										{
											OFFSET -2.883100 -0.000000 0.000000
											CHANNELS 3 Zrotation Yrotation Xrotation
											JOINT RightHandIndex4
											{
												OFFSET -2.392700 0.000000 0.000000
												CHANNELS 3 Zrotation Yrotation Xrotation
												End Site
												{
													OFFSET 0.000000 0.000000 0.000000
												}
											}
										}
									}
								}
								JOINT RightHandThumb1
								{
									OFFSET -2.464800 -1.572700 2.682600
									CHANNELS 3 Zrotation Yrotation Xrotation
									JOINT RightHandThumb2
									{
										OFFSET -3.229800 -1.864700 1.864700
										CHANNELS 3 Zrotation Yrotation Xrotation
										JOINT RightHandThumb3
										{
											OFFSET -2.652600 -1.531400 1.531400
											CHANNELS 3 Zrotation Yrotation Xrotation
											JOINT RightHandThumb4
											{
												OFFSET -1.954600 -1.128500 1.128500
												CHANNELS 3 Zrotation Yrotation Xrotation
												End Site
												{
													OFFSET 0.000000 0.000000 0.000000
												}
											}
										}
									}
								}
							}
						}
					}
				}
			}
		}
	}
	JOINT LeftUpLeg
	{
		OFFSET 8.207800 -6.751700 -1.599600
		CHANNELS 3 Zrotation Yrotation Xrotation
		JOINT LeftLeg
		{
			OFFSET -0.000000 -44.370500 0.284600
			CHANNELS 3 Zrotation Yrotation Xrotation
			JOINT LeftFoot
			{
				OFFSET 0.000000 -44.427900 -2.982200
				CHANNELS 3 Zrotation Yrotation Xrotation
				JOINT LeftToeBase
				{
					OFFSET -0.000000 -8.728700 10.710600
					CHANNELS 3 Zrotation Yrotation Xrotation
					JOINT LeftToe_End
					{
						OFFSET -0.000000 -0.000700 9.278100
						CHANNELS 3 Zrotation Yrotation Xrotation
						End Site
						{
							OFFSET 0.000000 0.000000 0.000000
						}
					}
				}
			}
		}
	}
	JOINT RightUpLeg
	{
		OFFSET -8.207800 -6.751700 -1.599600
		CHANNELS 3 Zrotation Yrotation Xrotation
		JOINT RightLeg
		{
			OFFSET 0.000000 -44.370500 0.286200
			CHANNELS 3 Zrotation Yrotation Xrotation
			JOINT RightFoot
			{
				OFFSET 0.000000 -44.427700 -2.983800
				CHANNELS 3 Zrotation Yrotation Xrotation
				JOINT RightToeBase
				{
					OFFSET -0.000000 -8.728700 10.710600
					CHANNELS 3 Zrotation Yrotation Xrotation
					JOINT RightToe_End
					{
						OFFSET -0.000000 -0.000700 9.278100
						CHANNELS 3 Zrotation Yrotation Xrotation
						End Site
						{
							OFFSET 0.000000 0.000000 0.000000
						}
					}
				}
			}
		}
	}
}
MOTION
Frames: 4
Frame Time: 0.033333
0.862456 89.429321 77.026581 7.403107 -10.641258 -8.622211 -0.757616 3.028120 4.150917 -1.292915 5.987556 8.446220 -1.297293 5.996828 8.437854 -0.516120 -0.744549 -5.598833 1.732312 -3.805171 -25.790283 0.000000 0.000000 0.000000 0.000000 0.000000 0.000000 0.000000 0.000000 0.000000 -9.310455 7.412816 -0.992437 -65.452278 20.897593 50.923344 -0.000174 -30.128315 -0.000012 17.449940 0.544734 -22.734991 9.117486 23.511768 1.536794 1.308315 7.899608 4.090980 2.526892 1.610829 -0.504233 0.000000 0.000000 0.000000 -19.868235 2.339716 -0.409854 -14.897541 1.770363 -0.231503 -7.446984 0.892708 -0.058078 0.000000 0.000000 0.000000 -19.852222 2.337909 -0.409194 -14.913542 1.772212 -0.231972 -7.446982 0.892698 -0.058097 0.000000 0.000000 0.000000 -19.868235 2.339716 -0.409854 -14.897541 1.770363 -0.231503 -7.446984 0.892708 -0.058078 0.000000 0.000000 0.000000 -19.386265 6.397657 -0.373102 -15.409600 -2.143308 0.828193 -7.446983 0.892709 -0.058093 0.000000 0.000000 0.000000 9.819645 -6.685843 -0.827511 75.796043 57.252144 63.133282 -0.000007 59.907330 -0.000004 -12.227197 -0.109876 -8.069306 19.865696 -2.363819 -0.413725 14.895518 -1.785839 -0.233263 7.445980 -0.901290 -0.058644 0.000000 0.000000 0.000000 19.865683 -2.362228 -0.413725 14.895532 -1.787377 -0.233672 7.445980 -0.901290 -0.058644 0.000000 0.000000 0.000000 19.865683 -2.362228 -0.413725 14.895532 -1.787377 -0.233672 7.445981 -0.903312 -0.058645 0.000000 0.000000 0.000000 19.865683 -2.362228 -0.413725 14.895532 -1.787377 -0.233672 7.445980 -0.901290 -0.058644 0.000000 0.000000 0.000000 -9.602036 -23.424009 1.405064 -0.935648 -8.607982 4.734343 -2.102377 0.077458 -1.273224 0.000000 0.000000 0.000000 -3.996200 6.597753 -38.793148 6.516469 6.134923 42.933617 -2.141092 4.638566 4.143524 -0.000002 0.000007 -4.802243 0.000000 0.000000 0.000000 -23.420488 -6.551721 7.190443 3.494982 1.422551 53.204109 -7.447484 15.005692 -15.207705 -0.000002 0.000009 -44.513832 0.000000 0.000000 0.000000 
1.424946 89.586006 80.675041 8.143723 -11.824613 -7.289413 -1.445137 3.667194 3.821915 -1.531504 6.741994 7.579978 -1.524980 6.738803 7.589464 -1.014461 -0.861450 -5.567934 3.393257 -4.626848 -24.657635 0.000000 0.000000 0.000000 0.000000 0.000000 0.000000 0.000000 0.000000 0.000000 -10.023331 7.933365 -1.216830 -61.302097 20.084028 51.485405 -0.000209 -33.591259 0.000001 16.288546 0.534481 -20.932718 9.117486 23.511768 1.536794 1.308315 7.899608 4.090980 2.526892 1.610829 -0.504233 0.000000 0.000000 0.000000 -19.868235 2.339716 -0.409854 -14.897541 1.770363 -0.231503 -7.446984 0.892708 -0.058078 0.000000 0.000000 0.000000 -19.852222 2.337909 -0.409194 -14.913542 1.772212 -0.231972 -7.446982 0.892698 -0.058097 0.000000 0.000000 0.000000 -19.868235 2.339716 -0.409854 -14.897541 1.770363 -0.231503 -7.446984 0.892708 -0.058078 0.000000 0.000000 0.000000 -19.386265 6.397657 -0.373102 -15.409600 -2.143308 0.828193 -7.446983 0.892709 -0.058093 0.000000 0.000000 0.000000 9.545273 -6.138885 -0.671956 73.765541 53.312828 62.227699 0.000000 59.266693 0.000005 -11.441188 -0.112858 -8.123760 19.865696 -2.363819 -0.413725 14.895518 -1.785839 -0.233263 7.445980 -0.901290 -0.058644 0.000000 0.000000 0.000000 19.865683 -2.362228 -0.413725 14.895532 -1.787377 -0.233672 7.445980 -0.901290 -0.058644 0.000000 0.000000 0.000000 19.865683 -2.362228 -0.413725 14.895532 -1.787377 -0.233672 7.445981 -0.903312 -0.058645 0.000000 0.000000 0.000000 19.865683 -2.362228 -0.413725 14.895532 -1.787377 -0.233672 7.445980 -0.901290 -0.058644 0.000000 0.000000 0.000000 -9.602036 -23.424009 1.405064 -0.935648 -8.607982 4.734343 -2.102377 0.077458 -1.273224 0.000000 0.000000 0.000000 -5.034937 6.282945 -39.871540 7.126713 6.068254 45.892078 -2.843841 5.094994 0.838275 -0.000002 0.000000 -4.995911 0.000000 0.000000 0.000000 -24.971867 -6.485229 5.080588 1.868323 0.214584 53.543140 -5.713805 16.082443 -0.945541 0.000004 -0.000012 -57.582203 0.000000 0.000000 0.000000 
1.836033 89.482422 83.862709 8.671952 -12.543309 -6.337756 -2.147922 4.058123 3.622951 -1.711120 7.103237 7.042951 -1.695507 7.093935 7.066883 -1.438115 -0.896744 -5.862255 4.752565 -4.952253 -23.702875 0.000000 0.000000 0.000000 0.000000 0.000000 0.000000 0.000000 0.000000 0.000000 -10.611121 8.513927 -1.452074 -57.836483 18.017460 50.328587 -0.000244 -35.754631 0.000025 15.137399 0.533364 -19.589729 9.117486 23.511768 1.536794 1.308315 7.899608 4.090980 2.526892 1.610829 -0.504233 0.000000 0.000000 0.000000 -19.868235 2.339716 -0.409854 -14.897541 1.770363 -0.231503 -7.446984 0.892708 -0.058078 0.000000 0.000000 0.000000 -19.852222 2.337909 -0.409194 -14.913542 1.772212 -0.231972 -7.446982 0.892698 -0.058097 0.000000 0.000000 0.000000 -19.868235 2.339716 -0.409854 -14.897541 1.770363 -0.231503 -7.446984 0.892708 -0.058078 0.000000 0.000000 0.000000 -19.386265 6.397657 -0.373102 -15.409600 -2.143308 0.828193 -7.446983 0.892709 -0.058093 0.000000 0.000000 0.000000 9.393823 -5.560322 -0.520315 72.143761 49.320457 61.745407 0.000006 58.229610 0.000003 -10.716615 -0.119302 -8.211623 19.865696 -2.363819 -0.413725 14.895518 -1.785839 -0.233263 7.445980 -0.901290 -0.058644 0.000000 0.000000 0.000000 19.865683 -2.362228 -0.413725 14.895532 -1.787377 -0.233672 7.445980 -0.901290 -0.058644 0.000000 0.000000 0.000000 19.865683 -2.362228 -0.413725 14.895532 -1.787377 -0.233672 7.445981 -0.903312 -0.058645 0.000000 0.000000 0.000000 19.865683 -2.362228 -0.413725 14.895532 -1.787377 -0.233672 7.445980 -0.901290 -0.058644 0.000000 0.000000 0.000000 -9.602036 -23.424009 1.405064 -0.935648 -8.607982 4.734343 -2.102377 0.077458 -1.273224 0.000000 0.000000 0.000000 -6.036077 6.086344 -40.588055 7.827487 5.997329 49.116917 -3.405231 4.622309 -3.021317 -0.000001 0.000000 -5.464747 0.000000 0.000000 0.000000 -25.074598 -6.152178 1.897802 8.113308 4.769416 54.511406 5.137848 12.613589 19.138714 -1.438560 -3.059817 -67.809235 0.000000 0.000000 0.000000 
2.119009 89.296265 86.778999 8.936191 -12.598632 -5.945177 -2.635013 4.077065 3.583733 -1.818614 6.914762 6.932459 -1.800757 6.903372 6.961157 -1.709843 -0.843214 -6.452062 5.605258 -4.700011 -23.143818 0.000000 0.000000 0.000000 0.000000 0.000000 0.000000 0.000000 0.000000 0.000000 -10.866750 8.904049 -1.598421 -55.939423 14.838307 47.995750 -0.000202 -35.995884 -0.000006 14.626811 0.532584 -19.217346 9.117486 23.511768 1.536794 1.308315 7.899608 4.090980 2.526892 1.610829 -0.504233 0.000000 0.000000 0.000000 -19.868235 2.339716 -0.409854 -14.897541 1.770363 -0.231503 -7.446984 0.892708 -0.058078 0.000000 0.000000 0.000000 -19.852222 2.337909 -0.409194 -14.913542 1.772212 -0.231972 -7.446982 0.892698 -0.058097 0.000000 0.000000 0.000000 -19.868235 2.339716 -0.409854 -14.897541 1.770363 -0.231503 -7.446984 0.892708 -0.058078 0.000000 0.000000 0.000000 -19.386265 6.397657 -0.373102 -15.409600 -2.143308 0.828193 -7.446983 0.892709 -0.058093 0.000000 0.000000 0.000000 9.326718 -4.880235 -0.351900 71.104881 45.767464 61.564377 0.000009 56.282871 0.000004 -10.233496 -0.134574 -8.395849 19.865696 -2.363819 -0.413725 14.895518 -1.785839 -0.233263 7.445980 -0.901290 -0.058644 0.000000 0.000000 0.000000 19.865683 -2.362228 -0.413725 14.895532 -1.787377 -0.233672 7.445980 -0.901290 -0.058644 0.000000 0.000000 0.000000 19.865683 -2.362228 -0.413725 14.895532 -1.787377 -0.233672 7.445981 -0.903312 -0.058645 0.000000 0.000000 0.000000 19.865683 -2.362228 -0.413725 14.895532 -1.787377 -0.233672 7.445980 -0.901290 -0.058644 0.000000 0.000000 0.000000 -9.602036 -23.424009 1.405064 -0.935648 -8.607982 4.734343 -2.102377 0.077458 -1.273224 0.000000 0.000000 0.000000 -6.907754 5.978575 -40.615440 8.442694 5.862374 52.131294 -3.643329 3.537662 -6.570492 0.000005 -0.000000 -7.114673 0.000000 0.000000 0.000000 -24.917795 -5.193069 -2.793572 8.228831 3.803243 60.716831 8.826438 7.799735 27.052704 -1.218480 -2.267234 -63.938389 0.000000 0.000000 0.000000 
